<?xml version="1.0" standalone="no"?>
<!DOCTYPE svg PUBLIC "-//W3C//DTD SVG 20010904//EN"
 "http://www.w3.org/TR/2001/REC-SVG-20010904/DTD/svg10.dtd">
<svg version="1.0" xmlns="http://www.w3.org/2000/svg"
 width="1127.000000pt" height="1127.000000pt" viewBox="0 0 1127.000000 1127.000000"
 preserveAspectRatio="xMidYMid meet">
<metadata>
Created by potrace 1.14, written by Peter Selinger 2001-2017
</metadata>
<g transform="translate(0.000000,1127.000000) scale(0.100000,-0.100000)"
fill="#000000" stroke="none">
<path d="M5197 8433 c-57 -19 -140 -90 -167 -143 -11 -21 -23 -62 -27 -92 -4
-29 -8 -387 -7 -795 l1 -743 32 -64 c24 -50 48 -78 98 -120 37 -31 87 -66 112
-78 l46 -22 902 -1 c496 -1 904 -3 907 -6 2 -2 7 -85 11 -184 4 -99 8 -181 10
-183 2 -2 15 4 29 13 14 10 27 13 27 9 4 -19 6 -40 8 -61 1 -19 42 7 294 186
160 114 299 211 307 216 8 5 381 9 870 10 818 0 857 1 895 19 69 33 122 83
152 144 l28 57 3 776 c2 757 2 778 -18 830 -22 59 -58 104 -136 167 -105 85
131 77 -2229 79 -1908 2 -2104 0 -2148 -14z"/>
<path d="M3183 6418 c-70 -10 -113 -38 -218 -139 -49 -48 -139 -135 -200 -192
l-110 -105 92 -95 c50 -52 101 -113 112 -135 126 -246 -30 -528 -302 -549
-130 -10 -206 26 -341 160 l-98 99 -57 -55 c-31 -30 -124 -120 -207 -201 -171
-166 -195 -203 -195 -306 -1 -95 31 -150 164 -287 64 -65 151 -156 195 -203
l80 -84 79 77 c132 129 194 164 303 171 232 15 415 -172 397 -405 -8 -104 -43
-165 -159 -282 -55 -54 -96 -102 -92 -106 3 -3 91 -94 195 -202 224 -232 243
-244 369 -244 119 1 95 -16 474 349 l109 105 86 -88 c130 -133 191 -164 316
-163 142 2 264 90 316 228 13 33 17 70 16 128 -4 108 -34 166 -149 286 l-88
90 63 60 c42 41 67 58 77 53 8 -3 125 -7 260 -8 l245 -2 92 90 92 90 -2 436
-2 436 -100 0 -100 0 -1 -398 0 -398 -41 -40 -40 -40 -118 0 c-65 1 -120 3
-122 4 -2 2 27 35 65 73 37 38 78 91 91 119 43 92 20 224 -53 301 -6 7 -59 61
-118 122 l-108 110 0 71 c0 49 -4 71 -12 72 -7 1 -38 2 -68 3 -91 2 -91 8 8
104 92 90 131 142 150 202 71 217 -96 452 -321 451 -122 0 -192 -37 -333 -176
l-64 -62 -202 209 c-112 116 -221 221 -244 234 -52 31 -115 42 -181 32z"/>
<path d="M5409 5400 c-4 -100 -3 -133 6 -140 6 -4 118 -8 250 -8 132 0 245 -1
252 -1 6 -1 -44 -74 -111 -163 -68 -90 -189 -251 -269 -358 l-147 -195 0 -80
0 -81 390 0 390 0 1 28 c0 15 1 54 2 87 l2 58 -258 -1 c-143 -1 -263 1 -267 4
-5 3 15 37 44 75 28 39 148 197 265 353 233 309 215 274 212 407 l-1 40 -380
0 -380 0 -1 -25z"/>
<path d="M6439 5413 c0 -7 -1 -29 -1 -48 0 -19 1 -52 1 -74 l1 -39 260 2 c143
0 260 0 260 -1 0 -3 -489 -652 -517 -687 -21 -26 -23 -37 -21 -110 l3 -81 387
0 c261 -1 388 3 390 10 3 9 2 100 -1 145 -1 14 -33 16 -257 15 -141 0 -260 2
-264 5 -5 3 111 164 257 357 l265 352 2 81 c0 44 -1 81 -4 81 -3 1 -175 2
-382 3 -297 1 -378 -2 -379 -11z"/>
<path d="M7514 5421 c-2 -2 -4 -239 -4 -526 l0 -521 365 0 365 0 0 87 0 87
-256 0 c-140 0 -258 3 -262 7 -4 3 -7 200 -7 438 l0 432 -98 0 c-54 0 -100 -1
-103 -4z"/>
<path d="M8510 4900 l0 -526 380 0 381 0 -3 86 -3 85 -245 2 c-135 1 -259 2
-277 2 l-31 1 -1 135 -1 135 258 0 258 0 -1 83 0 82 -255 1 -255 0 -2 132 -2
132 82 0 c45 1 171 1 280 1 l198 1 -3 86 -3 87 -377 0 -378 0 0 -525z"/>
</g>
</svg>
